<svg xmlns="http://www.w3.org/2000/svg" xmlns:xlink="http://www.w3.org/1999/xlink" width="500" zoomAndPan="magnify" viewBox="0 0 375 374.999991" height="500" preserveAspectRatio="xMidYMid meet" version="1.0"><defs><clipPath id="7ef064f3f1"><path d="M 0 27 L 314 27 L 314 347.933594 L 0 347.933594 Z M 0 27 " clip-rule="nonzero"/></clipPath></defs><g clip-path="url(#7ef064f3f1)"><path fill="#faf3dd" d="M 236.527344 27.140625 C 198.230469 27.140625 166.453125 55.011719 160.359375 91.574219 L 150.886719 93.375 C 139.75 74.5625 119.261719 61.941406 95.808594 61.941406 C 60.472656 61.941406 31.839844 90.574219 31.839844 125.910156 C 31.839844 155.957031 52.546875 181.144531 80.46875 188.019531 L 80.46875 195.164062 L 67.515625 195.164062 L 67.457031 194.582031 L 52.117188 188.890625 L 41.367188 188.890625 L 58.335938 224.214844 L 64.609375 222.53125 L 68.09375 216.835938 L 80.46875 216.835938 L 80.46875 296.722656 L 100.980469 296.722656 L 98.597656 314.503906 L 49.792969 323.796875 L 39.277344 318.335938 L 0 325.832031 L 2.730469 347.851562 L 42.183594 340.355469 L 51.304688 331.175781 L 104.347656 319.730469 L 108.125 296.722656 L 302.820312 296.722656 L 302.820312 163.90625 L 285.738281 163.90625 C 302.875 149.738281 313.800781 128.324219 313.800781 104.355469 C 313.800781 61.695312 279.1875 27.140625 236.53125 27.140625 Z M 169.421875 142.585938 C 174.0625 150.726562 180.132812 157.96875 187.316406 163.910156 L 147.285156 163.910156 C 151.476562 158.238281 154.730469 151.851562 156.871094 144.96875 Z M 280.507812 269.882812 C 284.359375 269.882812 287.480469 273.003906 287.480469 276.855469 C 287.480469 280.707031 284.359375 283.828125 280.507812 283.828125 C 276.65625 283.828125 273.535156 280.707031 273.535156 276.855469 C 273.535156 273.003906 276.65625 269.882812 280.507812 269.882812 Z M 280.507812 269.882812 " fill-opacity="1" fill-rule="nonzero"/></g><path fill="#084c61" d="M 235.410156 63.523438 C 213.847656 63.523438 196.367188 81.003906 196.367188 102.566406 C 196.367188 124.132812 213.847656 141.609375 235.410156 141.609375 C 256.972656 141.609375 274.453125 124.132812 274.453125 102.566406 C 274.453125 81.003906 256.972656 63.523438 235.410156 63.523438 Z M 231.683594 75.046875 C 235.175781 75.046875 238.019531 77.859375 238.019531 81.351562 C 238.019531 84.847656 235.175781 87.691406 231.683594 87.691406 C 228.1875 87.691406 225.347656 84.847656 225.347656 81.351562 C 225.347656 77.859375 228.1875 75.046875 231.683594 75.046875 Z M 251.238281 86.910156 C 254.734375 86.910156 257.574219 89.753906 257.574219 93.246094 C 257.574219 96.742188 254.734375 99.585938 251.238281 99.585938 C 247.746094 99.585938 244.902344 96.742188 244.902344 93.246094 C 244.902344 89.753906 247.746094 86.910156 251.238281 86.910156 Z M 216.738281 91.890625 C 220.230469 91.890625 223.042969 94.734375 223.042969 98.230469 C 223.042969 101.722656 220.230469 104.566406 216.738281 104.566406 C 213.242188 104.566406 210.398438 101.722656 210.398438 98.230469 C 210.398438 94.734375 213.242188 91.890625 216.738281 91.890625 Z M 248.933594 109.175781 C 252.429688 109.175781 255.273438 111.988281 255.273438 115.480469 C 255.273438 118.976562 252.429688 121.820312 248.933594 121.820312 C 245.441406 121.820312 242.597656 118.976562 242.597656 115.480469 C 242.597656 111.988281 245.441406 109.175781 248.933594 109.175781 Z M 225.550781 113.007812 C 229.042969 113.007812 231.886719 115.816406 231.886719 119.3125 C 231.886719 122.804688 229.042969 125.648438 225.550781 125.648438 C 222.054688 125.648438 219.210938 122.804688 219.210938 119.3125 C 219.210938 115.816406 222.054688 113.007812 225.550781 113.007812 Z M 225.550781 113.007812 " fill-opacity="1" fill-rule="nonzero"/><path fill="#084c61" d="M 95.972656 91.414062 C 78.515625 91.414062 64.367188 105.5625 64.367188 123.019531 C 64.367188 140.476562 78.515625 154.625 95.972656 154.625 C 113.425781 154.625 127.578125 140.476562 127.578125 123.019531 C 127.578125 105.5625 113.425781 91.414062 95.972656 91.414062 Z M 92.953125 100.742188 C 95.78125 100.742188 98.085938 103.015625 98.085938 105.84375 C 98.085938 108.671875 95.78125 110.976562 92.953125 110.976562 C 90.125 110.976562 87.824219 108.671875 87.824219 105.84375 C 87.824219 103.015625 90.125 100.742188 92.953125 100.742188 Z M 108.785156 110.34375 C 111.613281 110.34375 113.914062 112.644531 113.914062 115.472656 C 113.914062 118.304688 111.613281 120.605469 108.785156 120.605469 C 105.957031 120.605469 103.652344 118.304688 103.652344 115.472656 C 103.652344 112.644531 105.957031 110.34375 108.785156 110.34375 Z M 80.855469 114.378906 C 83.683594 114.378906 85.957031 116.679688 85.957031 119.507812 C 85.957031 122.335938 83.683594 124.636719 80.855469 124.636719 C 78.023438 124.636719 75.722656 122.335938 75.722656 119.507812 C 75.722656 116.679688 78.023438 114.378906 80.855469 114.378906 Z M 106.917969 128.371094 C 109.746094 128.371094 112.046875 130.644531 112.046875 133.472656 C 112.046875 136.300781 109.746094 138.601562 106.917969 138.601562 C 104.089844 138.601562 101.785156 136.300781 101.785156 133.472656 C 101.785156 130.644531 104.089844 128.371094 106.917969 128.371094 Z M 87.988281 131.46875 C 90.816406 131.46875 93.117188 133.742188 93.117188 136.574219 C 93.117188 139.402344 90.816406 141.703125 87.988281 141.703125 C 85.160156 141.703125 82.855469 139.402344 82.855469 136.574219 C 82.855469 133.742188 85.160156 131.46875 87.988281 131.46875 Z M 87.988281 131.46875 " fill-opacity="1" fill-rule="nonzero"/><path fill="#faf3dd" d="M 375.019531 155.722656 L 335.800781 179.484375 L 305.125 179.484375 L 305.125 238.6875 L 335.800781 238.6875 L 375.019531 262.453125 Z M 375.019531 155.722656 " fill-opacity="1" fill-rule="nonzero"/></svg>